<svg xmlns="http://www.w3.org/2000/svg" viewBox="0 0 120 130" enable-background="new 0 0 120 130"><path fill="#231F20" d="M56 9.7l-1.9 3c-.3.4-.4.8-.5 1.1-.1.4.1.7.6 1.1l-4-.8c1.1-.4 1.5-.8 2.6-2.5l5.7-8.7c.3-.4.5-.7.5-.9.1-.4 0-.6-.5-1l3.5.7 2.2 12.2c.3 1.8.6 2.6 1.5 3.3l-4.5-.9c.7-.3.9-.4.9-.7 0-.2 0-.4-.1-1.3l-.6-3.5L56 9.7zm4.2-6.5l-3.3 5.2 4.4.9-1.1-6.1zm15.3 18.7c-1.6.5-2.4.5-3.6-.3-1.2-.8-1.9-1.9-1.9-3.1 0-.8.3-1.6 1-2.7l2.2-3.3c.8-1.2.8-1.3.5-2.3l1.3.8c.6.4.9.5 1.3.4L73 16.5c-.6.9-.8 1.5-.7 2.1.1.7.5 1.3 1.2 1.8 1.3.8 2.7.5 3.6-.8l2.2-3.3c.8-1.2.8-1.4.5-2.3l1.3.8c.5.4.9.4 1.3.3l-4.6 7c-.8 1.2-.8 1.3-.5 2.3L75 22.9l.5-1zm15.3 5.2c-.3-1.1-.6-1.9-1.3-2.5-.8-.9-1.8-1.1-2.3-.6-.5.4-.3 1.1.5 2.8.8 1.6.9 2.1 1 2.9 0 .7-.3 1.4-.8 1.9-1.5 1.4-3.8 1-5.8-1.2-.8-.8-1.2-1.4-1.7-2.5l1-2c.4 1.9.9 2.9 1.9 3.9.9 1 2.1 1.3 2.8.7.3-.3.4-.7.4-1.1-.1-.4-.2-.7-.8-2.1-1.1-2.4-1.1-3.5-.1-4.4 1.3-1.3 3.3-.9 5.1 1.1.7.7 1.2 1.4 1.5 2l-1.4 1.1zm2.1 10.5c-1 .6-1.4.9-1.6 1.4-.2.6-.1 1.2.2 1.8.2.3.3.4.6.7l-1.9-.2c-.3-.2-.3-.3-.5-.6-.5-.8-.6-1.6-.4-2.4.3-.9.6-1.3 2.3-2.3l4.1-2.5-.8-1.3.7-.4c.5.6 1.1.9 1.8 1 .8.2 1.7-.1 2.7-.7l.2-.1.4.7-2.8 1.7.9 1.5c.4.6.5.9.8 1l-1.7 1c.1-.5 0-.7-.4-1.4l-.8-1.4-3.8 2.5zm3.6 11c.3.9.7 1.9 1.1 2.8.7 1.4 1.4 2.2 2.9 3l-3.1.2-3.9-8.1c.7.5 1.3.5 3-.3l8-3.8c1.7-.8 2.1-1.2 2.1-2.1l1.8 3.8c-.7-.5-1.3-.5-3 .3l-8.9 4.2zm14.4 8.2c1.8-.7 2.2-1 2.3-1.9l1.5 3.9c-.7-.6-1.2-.6-3 .1l-8.3 3.1c-1.8.7-2.2 1-2.3 1.9L99.7 60c.7.6 1.2.6 3-.1l8.2-3.1zm3.5 9.4c1.8-.6 2.2-.9 2.3-1.8l1.4 3.9c-.7-.6-1.2-.6-3 0l-8.4 2.9c-1.8.6-2.2.9-2.3 1.8l-1.4-3.9c.7.6 1.2.6 3 0l8.4-2.9z"/><path fill="#E2231A" d="M53.6 100.7s-21.3 12.5-34.4 17.5c-.8.3-1.5.4-2 .6-5.4 1.8-11.3-3.7-14.8-13.8C-4 86.4 2 64.2 23.7 25.9c8.8-16 15.1-23 17-23.6.4-.1.5-.1.6.3v-.2s0 .6-1.2 2.1l-.1.1v.1C24 30.9 17.5 58 22.9 75.4c6.6 20.9 28.2 17.1 44 14.3 3.8-.7 7.3-1.3 10.4-1.6l-8.9 4.5-14.8 8.1z"/><path fill="#231F20" d="M37 28.6c.6-1.3 1.9-2.3 3.8-2.9 4.9-1.7 12.7-.5 19.6 2.8 17.7 8.7 29.2 28.6 40.8 71 5.1 17.5 5.6 26.9 4.7 28.7-.1.2-.2.3-.2.3-.1 0-.2 0-.4-.1.1 0 .1.1.1.1s-.4-.4-.6-2.3v-.2c-7.4-30.4-21.9-54.2-37.9-62-11.2-5.5-18.4-2.9-29.6 10.6l.4-.4c-.3.2-.9.6-1.6.3-1.3-.6-2.6-4-4-10.1-3.2-16.7 2.3-30.6 4.9-35.8z"/></svg>